<svg width="32" height="32" viewBox="0 0 32 32" fill="none" xmlns="http://www.w3.org/2000/svg">
<path d="M26.667 17C27.2193 17 27.667 16.5523 27.667 16C27.667 15.4477 27.2193 15 26.667 15L26.667 17ZM5.33366 15C4.78138 15 4.33366 15.4477 4.33366 16C4.33366 16.5523 4.78138 17 5.33366 17L5.33366 15ZM9.96305 23.3769C10.3553 23.7657 10.9885 23.7629 11.3772 23.3706C11.766 22.9784 11.7632 22.3452 11.3709 21.9564L9.96305 23.3769ZM8.31637 20.3369L9.02031 19.6267L9.02031 19.6267L8.31637 20.3369ZM8.31637 11.6631L7.61242 10.9528L7.61242 10.9528L8.31637 11.6631ZM11.3709 10.0436C11.7632 9.65483 11.766 9.02167 11.3772 8.62941C10.9885 8.23715 10.3553 8.23432 9.96305 8.6231L11.3709 10.0436ZM5.36018 16.4178L4.36821 16.5442L4.36821 16.5442L5.36018 16.4178ZM5.36018 15.5822L4.36821 15.4558L4.36821 15.4558L5.36018 15.5822ZM26.667 15L5.33366 15L5.33366 17L26.667 17L26.667 15ZM11.3709 21.9564L9.02031 19.6267L7.61242 21.0472L9.96305 23.3769L11.3709 21.9564ZM9.02031 12.3734L11.3709 10.0436L9.96305 8.6231L7.61242 10.9528L9.02031 12.3734ZM9.02031 19.6267C8.06632 18.6812 7.41192 18.0304 6.96912 17.4791C6.53899 16.9435 6.39143 16.5995 6.35215 16.2914L4.36821 16.5442C4.47325 17.3684 4.8665 18.055 5.40974 18.7314C5.9403 19.3921 6.69184 20.1348 7.61242 21.0472L9.02031 19.6267ZM7.61242 10.9528C6.69184 11.8653 5.9403 12.608 5.40974 13.2686C4.8665 13.9451 4.47325 14.6317 4.36821 15.4558L6.35215 15.7087C6.39143 15.4006 6.53899 15.0566 6.96912 14.521C7.41192 13.9696 8.06632 13.3189 9.02031 12.3734L7.61242 10.9528ZM6.35215 16.2914C6.3275 16.0979 6.3275 15.9021 6.35215 15.7087L4.36821 15.4558C4.32215 15.8172 4.32215 16.1829 4.36821 16.5442L6.35215 16.2914Z" fill="#F0EFEF"/>
</svg>
