<svg width="32" height="32" viewBox="0 0 32 32" fill="none" xmlns="http://www.w3.org/2000/svg">
<g opacity="0.2">
<path d="M26.667 16.5C26.9431 16.5 27.167 16.2762 27.167 16C27.167 15.7239 26.9431 15.5 26.667 15.5L26.667 16.5ZM5.33366 15.5C5.05751 15.5 4.83366 15.7239 4.83366 16C4.83366 16.2762 5.05751 16.5 5.33366 16.5L5.33366 15.5ZM10.315 23.0218C10.5111 23.2162 10.8277 23.2148 11.0221 23.0187C11.2165 22.8225 11.2151 22.5059 11.019 22.3116L10.315 23.0218ZM8.31636 20.3369L8.66834 19.9818L8.66834 19.9818L8.31636 20.3369ZM8.31636 11.6631L7.96439 11.308L7.96439 11.308L8.31636 11.6631ZM11.019 9.68848C11.2151 9.49409 11.2165 9.17751 11.0221 8.98138C10.8277 8.78525 10.5112 8.78384 10.315 8.97823L11.019 9.68848ZM5.36018 16.4178L4.86419 16.481L4.86419 16.481L5.36018 16.4178ZM5.36018 15.5822L4.86419 15.519L4.86419 15.519L5.36018 15.5822ZM26.667 15.5L5.33366 15.5L5.33366 16.5L26.667 16.5L26.667 15.5ZM11.019 22.3116L8.66834 19.9818L7.96439 20.6921L10.315 23.0218L11.019 22.3116ZM8.66834 12.0182L11.019 9.68848L10.315 8.97823L7.96439 11.308L8.66834 12.0182ZM8.66834 19.9818C7.7227 19.0446 7.04401 18.3709 6.57927 17.7922C6.12086 17.2214 5.91188 16.7917 5.85616 16.3546L4.86419 16.481C4.95279 17.1762 5.28462 17.7771 5.79958 18.4183C6.3082 19.0517 7.03545 19.7714 7.96439 20.6921L8.66834 19.9818ZM7.96439 11.308C7.03545 12.2287 6.3082 12.9484 5.79958 13.5817C5.28462 14.2229 4.95279 14.8239 4.86419 15.519L5.85616 15.6455C5.91188 15.2083 6.12086 14.7787 6.57927 14.2079C7.04401 13.6292 7.7227 12.9555 8.66834 12.0182L7.96439 11.308ZM5.85616 16.3546C5.82615 16.1191 5.82615 15.8809 5.85616 15.6455L4.86419 15.519C4.82348 15.8384 4.82348 16.1616 4.86419 16.481L5.85616 16.3546Z" fill="#F0EFEF"/>
</g>
</svg>
