<svg width="32" height="32" viewBox="0 0 32 32" fill="none" xmlns="http://www.w3.org/2000/svg">
<g opacity="0.2">
<path d="M5.33301 15.5C5.05686 15.5 4.83301 15.7238 4.83301 16C4.83301 16.2761 5.05686 16.5 5.33301 16.5L5.33301 15.5ZM26.6663 16.5C26.9425 16.5 27.1663 16.2761 27.1663 16C27.1663 15.7238 26.9425 15.5 26.6663 15.5L26.6663 16.5ZM21.685 8.97819C21.4889 8.7838 21.1723 8.78521 20.9779 8.98134C20.7835 9.17747 20.7849 9.49405 20.981 9.68844L21.685 8.97819ZM23.6836 11.6631L23.3317 12.0182L23.3317 12.0182L23.6836 11.6631ZM23.6836 20.3369L24.0356 20.692L24.0356 20.692L23.6836 20.3369ZM20.981 22.3115C20.7849 22.5059 20.7835 22.8225 20.9779 23.0186C21.1723 23.2148 21.4888 23.2162 21.685 23.0218L20.981 22.3115ZM26.6398 15.5822L27.1358 15.519L27.1358 15.519L26.6398 15.5822ZM26.6398 16.4178L27.1358 16.481L27.1358 16.481L26.6398 16.4178ZM5.33301 16.5L26.6663 16.5L26.6663 15.5L5.33301 15.5L5.33301 16.5ZM20.981 9.68844L23.3317 12.0182L24.0356 11.3079L21.685 8.97819L20.981 9.68844ZM23.3317 19.9818L20.981 22.3115L21.685 23.0218L24.0356 20.692L23.3317 19.9818ZM23.3317 12.0182C24.2773 12.9554 24.956 13.6291 25.4207 14.2078C25.8791 14.7786 26.0881 15.2083 26.1438 15.6454L27.1358 15.519C27.0472 14.8238 26.7154 14.2229 26.2004 13.5817C25.6918 12.9483 24.9645 12.2286 24.0356 11.3079L23.3317 12.0182ZM24.0356 20.692C24.9645 19.7713 25.6918 19.0516 26.2004 18.4183C26.7154 17.7771 27.0472 17.1761 27.1358 16.481L26.1438 16.3545C26.0881 16.7917 25.8791 17.2213 25.4207 17.7921C24.956 18.3708 24.2773 19.0445 23.3317 19.9818L24.0356 20.692ZM26.1438 15.6454C26.1738 15.8809 26.1738 16.1191 26.1438 16.3545L27.1358 16.481C27.1765 16.1616 27.1765 15.8384 27.1358 15.519L26.1438 15.6454Z" fill="#F0EFEF"/>
</g>
</svg>
