<svg width="32" height="32" viewBox="0 0 32 32" fill="none" xmlns="http://www.w3.org/2000/svg">
<path d="M5.33301 15C4.78072 15 4.33301 15.4477 4.33301 16C4.33301 16.5523 4.78072 17 5.33301 17L5.33301 15ZM26.6663 17C27.2186 17 27.6663 16.5523 27.6663 16C27.6663 15.4477 27.2186 15 26.6663 15L26.6663 17ZM22.037 8.62306C21.6447 8.23428 21.0115 8.23711 20.6228 8.62937C20.234 9.02163 20.2368 9.65479 20.6291 10.0436L22.037 8.62306ZM23.6836 11.6631L22.9797 12.3733L22.9797 12.3733L23.6836 11.6631ZM23.6836 20.3369L24.3876 21.0472L24.3876 21.0472L23.6836 20.3369ZM20.6291 21.9564C20.2368 22.3452 20.234 22.9783 20.6228 23.3706C21.0115 23.7629 21.6447 23.7657 22.037 23.3769L20.6291 21.9564ZM26.6398 15.5822L27.6318 15.4558L27.6318 15.4558L26.6398 15.5822ZM26.6398 16.4178L27.6318 16.5442L27.6318 16.5442L26.6398 16.4178ZM5.33301 17L26.6663 17L26.6663 15L5.33301 15L5.33301 17ZM20.6291 10.0436L22.9797 12.3733L24.3876 10.9528L22.037 8.62306L20.6291 10.0436ZM22.9797 19.6266L20.6291 21.9564L22.037 23.3769L24.3876 21.0472L22.9797 19.6266ZM22.9797 12.3733C23.9337 13.3188 24.5881 13.9695 25.0309 14.5209C25.461 15.0565 25.6086 15.4005 25.6478 15.7086L27.6318 15.4558C27.5267 14.6316 27.1335 13.945 26.5903 13.2686C26.0597 12.6079 25.3082 11.8652 24.3876 10.9528L22.9797 12.3733ZM24.3876 21.0472C25.3082 20.1347 26.0597 19.392 26.5903 18.7314C27.1335 18.0549 27.5267 17.3683 27.6318 16.5442L25.6478 16.2913C25.6086 16.5994 25.461 16.9434 25.0309 17.479C24.5881 18.0304 23.9337 18.6811 22.9797 19.6266L24.3876 21.0472ZM25.6478 15.7086C25.6725 15.9021 25.6725 16.0979 25.6478 16.2913L27.6318 16.5442C27.6779 16.1828 27.6779 15.8171 27.6318 15.4558L25.6478 15.7086Z" fill="#F0EFEF"/>
</svg>
